<?xml version="1.0" standalone="no"?><!DOCTYPE svg PUBLIC "-//W3C//DTD SVG 1.1//EN" "http://www.w3.org/Graphics/SVG/1.1/DTD/svg11.dtd"><svg t="1598856904301" class="icon" viewBox="0 0 1024 1024" version="1.1" xmlns="http://www.w3.org/2000/svg" p-id="2119" xmlns:xlink="http://www.w3.org/1999/xlink" width="200" height="200"><defs><style type="text/css"></style></defs><path d="M512 1024C229.216 1024 0 794.784 0 512S229.216 0 512 0s512 229.216 512 512-229.216 512-512 512z m0-564.576L319.488 266.88a37.12 37.12 0 0 0-52.512 52.512L459.424 512 266.88 704.48a37.12 37.12 0 1 0 52.512 52.512L512 564.512l192.512 192.576a37.12 37.12 0 1 0 52.512-52.544L564.576 512l192.544-192.512a37.12 37.12 0 1 0-52.512-52.544L512 459.392v0.032z" fill="#D8D8D8" p-id="2120"></path></svg>