<?xml version="1.0" standalone="no"?><!DOCTYPE svg PUBLIC "-//W3C//DTD SVG 1.1//EN" "http://www.w3.org/Graphics/SVG/1.1/DTD/svg11.dtd"><svg t="1598855879730" class="icon" viewBox="0 0 1024 1024" version="1.1" xmlns="http://www.w3.org/2000/svg" p-id="9048" xmlns:xlink="http://www.w3.org/1999/xlink" width="200" height="200"><defs><style type="text/css"></style></defs><path d="M1005.28 325.44L698.464 18.88a64.32 64.32 0 0 0-90.56 0L37.376 588.896a128.224 128.224 0 0 0-0.032 180.928l216.256 216.096a127.776 127.776 0 0 0 90.528 37.312c1.216 0 2.432-0.192 3.648-0.224 1.44 0.224 2.72 0.992 4.224 0.992h512a32 32 0 1 0 0-64H460.896l544.384-544.128a64.096 64.096 0 0 0 0-90.432zM82.592 724.576A63.296 63.296 0 0 1 64 679.36c0-17.152 6.624-33.216 18.624-45.184l262.656-262.432 306.816 306.528-262.624 262.368c-12 12-28.128 18.592-45.344 18.592s-33.312-6.592-45.28-18.592l-216.256-216.064z" p-id="9049"></path></svg>