<?xml version="1.0" standalone="no"?><!DOCTYPE svg PUBLIC "-//W3C//DTD SVG 1.1//EN" "http://www.w3.org/Graphics/SVG/1.1/DTD/svg11.dtd"><svg t="1599545932588" class="icon" viewBox="0 0 1297 1024" version="1.1" xmlns="http://www.w3.org/2000/svg" p-id="16655" xmlns:xlink="http://www.w3.org/1999/xlink" width="253.3203125" height="200"><defs><style type="text/css"></style></defs><path d="M0 0s331.912533 15.5648 652.765867 15.5648C973.687467 15.5648 1297.066667 0 1297.066667 0v204.8s-317.8496-12.424533-644.3008-12.424533C326.4512 192.375467 0 204.8 0 204.8V0zM0 409.6s267.0592 18.158933 519.3728 18.158933C771.6864 427.758933 1024 409.6 1024 409.6v204.8s-243.165867-16.930133-504.6272-16.930133C257.911467 597.469867 0 614.4 0 614.4V409.6zM0 819.2s193.9456 16.5888 380.245333 16.5888C566.340267 835.7888 750.933333 819.2 750.933333 819.2v204.8s-180.6336-16.9984-370.688-16.9984C190.0544 1007.0016 0 1024 0 1024v-204.8z" fill="#000000" p-id="16656"></path></svg>